<?xml version="1.0" encoding="utf-8"?>
<svg xmlns="http://www.w3.org/2000/svg" xmlns:xlink="http://www.w3.org/1999/xlink" version= "1.1" width="1618px" height="1000px" viewBox="-449 214 1618 1000">
<g id="layer1">
<g style="fill:rgb(242,117,122); fill-opacity:0.99607843; stroke-linejoin: miter">
<path d="M-449.001,213.25864C-449.19736,213.25864,-449.38565,213.33664,-449.5245,213.47548C-449.66336,213.61432,-449.74136,213.80264,-449.74136,213.999L-449.74036,1214.0C-449.74036,1214.4089,-449.40887,1214.7404,-449.0,1214.7404L1169.001,1214.7413C1169.1974,1214.7413,1169.3857,1214.6633,1169.5245,1214.5245C1169.6633,1214.3857,1169.7413,1214.1974,1169.7413,1214.001L1169.7404,214.0C1169.7404,213.59111,1169.4089,213.25964,1169.0,213.25964L-449.001,213.25864 Z"/>
</g>
<g style="fill:rgb(0,0,0); fill-opacity:0.33333334; stroke-linejoin: miter">
<path d="M1034.0175,1078.6613L1028.2928,1081.564Q987.5936,1090.336,790.12115,1095.5955Q591.28235,1100.8506,321.82843,1099.8573Q64.669754,1098.469,-89.51099,1091.7328Q-138.9122,1089.5554,-170.894,1086.9877L-197.77382,1084.3479Q-219.92525,1081.6233,-220.1743,1078.6613Q-213.44977,1069.5713,-36.502167,1063.5353Q140.44542,1057.4993,406.92157,1057.2699Q673.39777,1057.4993,850.34534,1063.5353Q1027.293,1069.5713,1034.0175,1078.6613"/>
</g>
<g style="fill:rgb(0,0,0); fill-opacity:1.0; stroke-linejoin: miter">
<path d="M-56.7943,1029.6694L-99.13565,1043.6145Q-102.666084,1048.9839,-107.33504,1072.8945Q-97.379265,1079.7317,-92.53075,1080.7827Q-88.15485,1082.061,-80.05264,1080.5702Q-50.18923,1090.3047,-38.199223,1090.1096Q-28.037333,1090.3147,-21.92343,1087.6667Q-16.287516,1085.309,-17.581057,1078.6924Q-9.904654,1079.167,-5.8371987,1075.4872Q0.44186947,1069.6437,-6.616125,1063.2228Q-9.297102,1060.816,-14.912353,1057.6742L-37.158924,1046.2611Q-41.741383,1043.8369,-44.91276,1041.7092Q-53.51365,1035.9261,-56.782032,1029.6913"/>
</g>
<g style="fill:rgb(255,200,177); fill-opacity:1.0; stroke-linejoin: miter">
<path d="M-110.97581,898.4698Q-114.645775,907.71893,-115.59408,914.68164Q-116.71589,922.35315,-115.88099,931.7407Q-114.76292,948.0663,-102.46674,996.7654L-78.884285,990.57214Q-83.24228,942.3216,-82.47925,932.8904Q-82.297005,927.27545,-81.36225,923.7396Q-80.7987,921.5682,-79.99015,919.91846Q-79.52714,918.83057,-77.29953,915.50806Q-76.90045,914.82825,-76.595924,913.9354Q-75.71853,911.2248,-76.050575,907.5387L-110.94309,898.4781"/>
</g>
<g style="fill:rgb(255,200,177); fill-opacity:1.0; stroke-linejoin: miter">
<path d="M-63.05954,906.6934Q-63.404022,910.6664,-63.549507,913.64954L-63.71257,922.48785Q-63.797417,924.5692,-64.01997,926.2134Q-64.255,928.0375,-64.703735,930.07715Q-67.52964,941.2035,-68.09288,944.7113Q-69.132614,950.40497,-69.47338,956.0305Q-70.29934,967.2835,-68.49367,994.84656L-49.284927,999.2029Q-39.601036,975.3379,-35.944332,959.0249Q-32.25222,943.72345,-28.661951,909.9837L-63.056053,906.6937"/>
</g>
<g style="fill:rgb(60,70,79); fill-opacity:1.0; stroke-linejoin: miter">
<path d="M-18.163435,670.1336Q-19.030329,691.55945,-14.798345,710.965Q-11.179461,729.2265,4.3522377,778.19434L15.814501,776.653L-3.8001842,709.7229L-3.008513,696.19293L-18.153399,670.15094"/>
</g>
<g style="fill:rgb(60,70,79); fill-opacity:1.0; stroke-linejoin: miter">
<path d="M-130.32314,614.1508Q-146.4855,615.7549,-156.73193,633.3403Q-165.73126,649.1131,-165.27443,676.8227Q-164.42186,710.35297,-153.36757,744.50543Q-143.56718,773.74084,-127.683304,789.1491L-65.82406,722.07996Q-84.94764,657.5315,-97.93175,636.9209Q-111.61422,613.182,-130.15947,614.13965"/>
</g>
<g style="fill:rgb(255,200,177); fill-opacity:1.0; stroke-linejoin: miter">
<path d="M-182.23889,632.00073Q-195.03325,644.5995,-189.53307,654.4929Q-185.01945,663.1312,-168.80193,673.77423Q-161.17213,678.7689,-151.90811,683.55615L-125.72777,696.5418L-119.64863,698.226Q-121.95451,697.50165,-122.30943,696.8728L-113.88984,686.7978Q-113.94857,679.90643,-114.22764,678.1355Q-114.74497,677.7186,-116.94038,676.5584L-116.93775,676.5594L-132.86443,668.0474L-182.23889,632.00073L-182.23889,632.0017 Z"/>
</g>
<g style="fill:rgb(89,49,14); fill-opacity:1.0; stroke-linejoin: miter">
<path d="M-53.23644,451.3347Q-80.11472,452.8995,-84.56913,474.07898Q-86.94268,483.59155,-85.24866,504.83594Q-85.005135,507.41034,-84.69448,509.9995L-76.97715,555.4862L-18.59242,502.57288Q-16.660881,476.96613,-24.331976,467.0635Q-35.375317,451.9264,-53.10612,451.3358"/>
</g>
<g style="fill:rgb(255,255,255); fill-opacity:1.0; stroke-linejoin: miter">
<path d="M-70.18574,543.94037L-80.40669,555.3446L-103.85399,557.672L-188.0989,632.1536L-137.13208,665.1744L-114.03388,642.38153Q-113.15597,658.23267,-110.923546,664.67285Q-109.933876,667.75146,-108.23408,670.5645L-101.51293,680.2828Q-100.81427,680.6284,-102.633255,686.4138Q-102.760765,687.9028,-102.57184,689.23645Q-102.206566,693.15295,-98.48619,704.1964L-58.67274,726.1843L-12.069651,712.4413L-7.9012213,652.1097L16.516218,651.81586L16.558472,651.54364Q1.7933344,569.55225,-5.7120533,566.2386Q-8.029387,563.3945,-10.344955,561.912L-23.533611,561.6167L-29.686363,549.7224L-70.01284,543.9649"/>
</g>
<g style="fill:rgb(35,35,53); fill-opacity:1.0; stroke-linejoin: miter">
<path d="M-100.936676,695.9007L-109.98791,726.67236Q-135.74716,809.303,-140.15561,824.90265Q-148.96216,854.7799,-160.41061,899.11005Q-110.26038,910.26154,-98.66007,911.2191Q-91.75263,912.0025,-86.035995,911.8879Q-62.762085,910.00244,-60.149136,910.5222L-29.589727,913.8995Q-25.222347,913.7971,-23.596598,911.5909Q-22.949266,910.7558,-22.55628,909.6003Q-20.960928,901.81696,-20.071068,901.0658Q-18.10294,897.50323,-13.8969755,893.998L-11.57649,708.43774Q-30.423798,720.2019,-45.68943,717.41895Q-60.46588,715.9828,-100.72439,696.0032"/>
</g>
<g style="fill:rgb(255,200,177); fill-opacity:1.0; stroke-linejoin: miter">
<path d="M-32.31453,469.34326Q-34.127728,469.5165,-36.28988,470.0962Q-46.783962,473.5566,-47.422924,473.31943Q-47.65595,473.72415,-58.627457,473.23724Q-61.232803,473.29443,-63.51168,473.7132Q-67.521355,474.45547,-70.137764,476.39246Q-74.545364,479.5589,-75.57162,488.14526Q-76.71013,496.7138,-74.939804,514.0867L-77.89573,513.8513Q-78.884415,506.99445,-82.700226,506.40277Q-89.09234,505.78418,-89.235664,511.11298Q-89.004295,517.6014,-84.59307,525.92426Q-81.35555,532.04803,-76.84325,527.0174Q-75.48523,534.59595,-72.81436,539.0973Q-71.63036,541.2836,-69.23819,544.8229L-53.908337,573.2192L-36.020184,600.71594Q-30.346806,583.84705,-29.870853,577.14667Q-29.56948,574.1873,-29.930382,570.70026Q-31.99078,559.7887,-31.750881,559.4042Q-31.952602,556.1584,-31.458885,551.48865Q-22.198395,540.60065,-20.053848,535.85736Q-17.632807,531.17365,-17.785105,523.93823Q-14.071937,522.8764,-14.161506,515.35046Q-13.983607,513.63794,-14.583671,498.10968Q-15.330584,496.48505,-18.649286,496.63043Q-19.777721,496.7204,-19.231064,499.60077L-20.495743,499.69696Q-20.511566,482.84448,-23.342176,475.36032Q-25.842783,468.47946,-32.233677,469.33603"/>
</g>
<g style="fill:rgb(255,200,177); fill-opacity:1.0; stroke-linejoin: miter">
<path d="M-116.55474,676.7632L-125.627716,696.5506L-125.627716,696.5516L-110.63203,703.96515Q-108.36993,709.7933,-102.868675,711.33984Q-98.29645,712.43555,-94.21401,712.46136Q-86.31695,712.5112,-80.2529,708.5573Q-70.37107,700.60114,-74.11789,691.21375L-74.163795,691.1248Q-77.34598,685.39716,-86.83015,681.546Q-91.45074,679.644,-94.796265,679.6229Q-100.16875,679.589,-102.253265,684.4056L-116.55474,676.7632 Z"/>
</g>
<g style="fill:rgb(255,200,177); fill-opacity:1.0; stroke-linejoin: miter">
<path d="M5.7480145,651.115L-3.7195745,652.11957Q-1.1096493,661.4596,-0.51134855,665.4921Q0.24609175,670.13983,-0.4357966,672.6786Q-0.9330689,674.52637,-2.4854345,675.6554Q-3.1684406,676.15967,-4.0894017,676.5982Q-8.644557,678.4699,-9.0912485,678.84827Q-10.678848,679.7875,-11.577732,681.0255Q-14.225081,684.7536,-14.1162195,690.7282Q-13.709546,700.9115,-4.5654902,704.0935Q6.2014685,707.02435,10.652004,698.6922Q13.944315,691.518,13.185759,681.40173Q12.782275,677.3414,11.241197,674.97687Q9.964599,672.85876,6.5039706,671.078Q6.3153415,668.5281,5.7497597,651.16614"/>
</g>
<g style="fill:rgb(60,70,79); fill-opacity:1.0; stroke-linejoin: miter">
<path d="M-92.71837,552.2496Q-103.64571,553.08185,-104.63413,559.17224Q-104.7066,560.56335,-103.84527,562.8034L-99.041985,573.2613Q-97.63646,576.5958,-96.622665,580.06244Q-94.6765,586.57416,-94.146576,595.16693Q-93.50633,605.0976,-94.42772,619.649Q-95.14708,632.0186,-98.12413,658.8377L-92.69562,679.5332L-79.73559,685.3527L-79.67125,685.33734L-73.12019,659.4275Q-70.66543,602.96436,-72.67231,581.79767Q-74.18535,565.9815,-78.851654,559.183Q-83.577965,552.32635,-92.678024,552.2491"/>
</g>
<g style="fill:rgb(60,70,79); fill-opacity:1.0; stroke-linejoin: miter">
<path d="M-26.406004,556.9301Q-15.405745,587.4679,-13.429664,606.5166Q-12.19081,616.89996,-12.247813,630.69293Q-12.246078,642.49506,-13.670543,665.9395L-11.552231,682.7435L-0.9978634,675.9899L1.542045,662.6276Q1.0226113,617.2456,-1.2392135,599.3029Q-2.6923914,586.40955,-6.029056,576.5633Q-8.819774,567.9323,-15.746336,556.57227L-26.372568,556.92896"/>
</g>
<g style="fill:rgb(75,71,67); fill-opacity:1.0; stroke-linejoin: miter">
<path d="M-78.56083,986.8001L-105.633545,992.85205Q-102.04602,1004.3384,-100.6602,1013.89355Q-99.18122,1023.1227,-97.29471,1047.3147Q-87.61748,1048.2225,-82.61396,1047.0327Q-76.62945,1045.8893,-67.28987,1038.9015L-74.002,1020.7063L-78.54747,986.89874"/>
</g>
<g style="fill:rgb(75,71,67); fill-opacity:1.0; stroke-linejoin: miter">
<path d="M-71.06397,989.0471L-76.32708,1015.4387Q-74.4902,1028.2311,-72.76621,1032.635Q-70.89105,1037.8269,-67.88061,1038.359Q-64.65611,1039.3246,-56.697094,1034.8093L-45.937862,994.77124L-71.035736,989.0536"/>
</g>
<g style="fill:rgb(0,0,0); fill-opacity:0.07450981; stroke-linejoin: miter">
<path d="M-63.646507,549.7573L-48.765644,570.3205L-32.174435,551.08905Q-41.67228,555.89984,-47.25422,555.3279Q-52.64516,555.10504,-63.590134,549.78375"/>
</g>
<g style="fill:rgb(255,255,255); fill-opacity:1.0; stroke-linejoin: miter">
<path d="M-26.339102,557.4902L-20.805847,594.6869L-2.9785624,597.6984L-26.311754,557.5372"/>
</g>
<g style="fill:rgb(255,255,255); fill-opacity:1.0; stroke-linejoin: miter">
<path d="M-79.30095,555.10925L-73.07172,595.8611L-66.01303,591.684L-79.29443,555.1273"/>
</g>
<g style="fill:rgb(255,0,0); fill-opacity:1.0; stroke-linejoin: miter">
<path d="M-49.785603,587.713L-60.036385,589.87305L-47.080643,615.6767L-55.03091,628.8596L-58.747654,698.46466L-41.99542,713.0076L-26.195414,696.35315L-27.674791,630.57965L-34.310192,615.8073L-22.192097,595.574L-32.004417,596.36993L-36.379078,603.2803L-49.782475,587.71674"/>
</g>
<g style="fill:rgb(255,255,255); fill-opacity:1.0; stroke-linejoin: miter">
<path d="M1.522735,645.5547L1.3754687,651.8945Q6.0267787,652.06726,6.5926967,651.87427L1.522735,645.5547"/>
</g>
<g style="fill:rgb(162,151,151); fill-opacity:1.0; stroke-linejoin: miter">
<path d="M756.83484,1043.3593L805.53723,1043.3595L854.23975,1043.3597Q854.23975,1057.7227,854.2397,1072.0857Q805.5372,1072.0858,756.8348,1072.086Q756.83484,1057.7227,756.83484,1043.3593"/>
</g>
<g style="fill:rgb(162,151,151); fill-opacity:1.0; stroke-linejoin: miter">
<path d="M315.0705,1027.4054L456.8891,1027.4059L598.70764,1027.4062Q598.70764,1046.1548,598.7076,1064.9032Q456.8891,1064.9037,315.0705,1064.904Q315.0705,1046.1548,315.0705,1027.4054"/>
</g>
<g style="fill:rgb(162,151,151); fill-opacity:1.0; stroke-linejoin: miter">
<path d="M23.308863,1038.912L81.187515,1038.9125L139.06618,1038.9128Q139.06618,1052.7218,139.06618,1066.5309Q81.187515,1066.5312,23.308855,1066.5317Q23.308859,1052.7218,23.308863,1038.912"/>
</g>
<g style="fill:rgb(139,199,240); fill-opacity:0.99607843; stroke-linejoin: miter">
<path d="M95.716736,552.1586L446.88495,552.1591L798.0532,552.1597Q798.0531,787.8694,798.0529,1023.579Q446.88467,1023.57935,95.716576,1023.57983Q95.71665,787.86926,95.716736,552.1586"/>
</g>
<g style="fill:rgb(255,255,255); fill-opacity:0.99607843; stroke-linejoin: miter">
<path d="M182.8177,613.31506L380.77795,613.31604L578.73834,613.3168Q578.7382,759.0086,578.73804,904.7005Q380.7778,904.7013,182.81754,904.70197Q182.81761,759.00854,182.8177,613.31506"/>
</g>
<g>
<g style="fill:rgb(26,26,26); fill-opacity:1.0; stroke-linejoin: miter">
<path d="M112.028114,549.2173C98.509926,549.2173,87.626434,559.8658,87.626434,573.09174L87.626274,1009.824C87.626274,1022.401,85.85286,1032.6462,97.303474,1033.6211L17.109066,1033.6213C7.618417,1033.6211,12.472271,1041.0162,12.472268,1050.2019L12.472264,1061.2552C12.472261,1070.4409,20.112429,1077.8358,29.603079,1077.8358L860.45123,1077.8365C869.9418,1077.8359,877.5826,1070.441,877.58264,1061.2554L877.58264,1050.202C877.58264,1041.0164,882.4359,1033.6212,872.9455,1033.6212L792.75104,1033.6216C804.2017,1032.6465,802.42834,1022.40125,802.42834,1009.8242L802.42865,573.0918C802.42865,559.86584,791.5452,549.21735,778.027,549.21735L112.02528,549.2177 Z M322.84723,555.00745C326.3163,555.00745,329.12863,557.7592,329.12863,561.1533C329.12863,564.5472,326.3163,567.29846,322.84723,567.29846C319.37823,567.29846,316.56598,564.54736,316.56598,561.1533C316.56598,557.7592,319.37823,555.00745,322.84723,555.00745 Z M111.43398,573.1373L778.62396,573.13763L778.62366,1009.7733L111.433754,1009.77356L111.43392,573.1373 Z M336.56332,1033.6989L553.49396,1033.6992C553.17017,1038.322,549.954,1041.931,546.00476,1041.931L344.05258,1041.9314C340.1031,1041.931,336.88715,1038.322,336.5634,1033.6989 Z M777.02106,1046.7772C782.12994,1046.7772,786.2717,1050.7859,786.2717,1055.7307C786.2717,1060.6755,782.1299,1064.684,777.021,1064.684C771.91223,1064.684,767.7704,1060.6755,767.7704,1055.7307C767.7704,1050.7859,771.9123,1046.7772,777.02106,1046.7772 Z M806.19696,1046.7772C811.3057,1046.7772,815.44727,1050.7859,815.4475,1055.7307C815.4475,1060.6755,811.3059,1064.684,806.1969,1064.684C801.088,1064.684,796.9468,1060.6755,796.9468,1055.7307C796.9468,1050.7859,801.0881,1046.7772,806.19696,1046.7772 Z M835.3736,1046.7772C840.4822,1046.7772,844.6236,1050.7859,844.6236,1055.7307C844.6236,1060.6755,840.4821,1064.684,835.37354,1064.684C830.26447,1064.684,826.12274,1060.6755,826.12274,1055.7307C826.12274,1050.7859,830.2645,1046.7772,835.3736,1046.7772 Z M49.390137,1052.707L97.92878,1052.7074C100.30144,1052.707,102.21165,1054.0555,102.21165,1055.7305C102.21165,1057.4053,100.30144,1058.7537,97.92878,1058.7537L49.390133,1058.7539C47.01747,1058.7537,45.107265,1057.4053,45.107265,1055.7305C45.107265,1054.0555,47.017475,1052.707,49.390137,1052.707 Z"/>
</g>
</g>
<g style="fill:rgb(255,200,177); fill-opacity:1.0; stroke-linejoin: miter">
<path d="M569.7637,785.92725Q568.6264,786.23505,568.6164,788.02466Q568.6019,789.01117,568.83386,790.49365Q570.39026,798.32623,570.2127,798.42645Q570.3686,800.6418,569.50604,802.14325Q566.7514,803.378,564.36816,802.5932Q562.8477,802.16943,560.271,800.74133L552.4748,795.97906Q551.05896,795.3537,550.2663,796.6724Q549.8049,797.6685,550.9135,799.0022Q551.4749,799.68207,552.3729,800.4675Q557.774,804.8344,557.83673,805.08417Q559.093,806.33295,559.5914,807.97614Q549.06696,801.7269,541.6776,796.1774Q539.23413,794.9165,537.9534,796.60315Q537.10455,798.19305,539.58936,800.68195Q540.53906,801.6814,542.3828,803.24554L552.4698,811.5931Q554.88184,813.70557,554.6092,813.9221Q552.68054,813.49927,547.0451,809.5321Q544.6619,807.93713,540.88184,803.82446Q540.27094,803.2847,539.6869,803.0029Q538.0024,802.25555,536.3859,802.75275Q535.0379,803.3266,535.4108,804.57196Q535.7976,807.01117,546.2466,814.35077Q542.1069,811.79175,541.5084,812.24725Q540.9698,812.4947,541.70056,814.1419Q541.6695,814.6811,543.0414,815.8834Q549.392,821.6807,556.7685,825.60614Q561.4567,828.0484,565.52203,828.41754Q569.36066,828.8908,576.21704,827.5874L581.3969,828.1068L582.95166,813.49774Q582.56885,811.7898,581.7998,808.9316Q580.795,805.2332,579.7505,802.9508Q579.30316,801.77954,576.2712,796.76984Q575.75726,795.83417,575.29553,794.6804Q574.7888,793.3959,574.42993,792.0655Q574.1047,790.95215,573.6471,788.3908Q573.5605,787.9958,573.3647,787.60706Q572.06213,785.8089,569.81366,785.9146"/>
</g>
<g style="fill:rgb(255,255,255); fill-opacity:1.0; stroke-linejoin: miter">
<path d="M581.47485,810.7977L576.0635,836.12646L581.7638,837.34576L581.85645,837.334L587.26666,812.0366L581.4853,810.8"/>
</g>
<g style="fill:rgb(14,4,0); fill-opacity:1.0; stroke-linejoin: miter">
<path d="M659.504,612.6913Q652.41235,613.08105,648.15314,617.5867Q643.4884,622.2051,639.18884,632.9795Q635.2796,642.42456,635.43286,642.38153Q634.6453,644.756,634.61993,646.72797Q634.3384,650.8542,638.25775,664.3867L696.9072,683.70935Q702.5141,664.07733,702.2812,654.3802Q702.24207,643.5615,696.7783,633.05554Q691.15485,622.5642,683.8468,618.7973Q670.0584,612.3146,659.6146,612.6851"/>
</g>
<g style="fill:rgb(0,0,0); fill-opacity:1.0; stroke-linejoin: miter">
<path d="M703.09796,706.59235L701.8325,707.4685L659.81024,736.56384L643.3088,747.9892L620.287,818.6642L583.57184,811.2463L583.57184,811.2473L587.26666,812.0366L583.5704,811.24603L582.213,810.97174L577.29144,836.38916L575.9999,843.05927L612.3646,854.27454L596.02136,989.4402L606.38574,989.60645Q606.0387,996.8136,605.7224,1003.60657L605.71716,1003.60767Q605.1318,1016.2915,604.6487,1027.5325L609.11334,1027.533L609.11334,1027.534L604.65393,1027.5334L604.6487,1027.5325Q604.46747,1031.7499,604.30133,1035.7642L605.1925,1035.7646L605.1925,1035.7657L604.2961,1035.7653Q603.44714,1056.404,602.9932,1071.6694L656.9109,1071.6694Q661.0099,1055.2649,665.1325,1044.9062Q668.1806,1059.3298,670.5197,1071.6694L721.1049,1071.6704L727.8996,1003.6063L730.28723,979.6884L769.53564,967.9293L752.3224,905.3965L780.89343,868.2735Q770.91534,771.0307,758.4639,748.2499Q752.6396,736.38153,744.8147,730.6824Q735.98517,723.40826,715.35986,721.10077L703.4411,706.9982L703.09796,706.59235 Z"/>
</g>
<g style="fill:rgb(0,0,0); fill-opacity:1.0; stroke-linejoin: miter">
<path d="M706.20386,943.05536L706.21075,943.0622L706.20447,943.06323Q705.2207,944.23694,704.4376,945.27954L704.4341,945.28064Q705.2182,944.2339,706.20386,943.05536 Z"/>
</g>
<g style="fill:rgb(0,0,0); fill-opacity:1.0; stroke-linejoin: miter">
<path d="M618.0877,898.9421L619.64185,902.2782L619.63654,902.27924L618.0877,898.9421 Z"/>
</g>
<g style="fill:rgb(0,0,0); fill-opacity:1.0; stroke-linejoin: miter">
<path d="M658.98987,740.4674L658.7033,740.73627L658.4989,741.4671L658.49316,741.46814L658.7033,740.73627L658.9841,740.4674 Z"/>
</g>
<g style="fill:rgb(255,255,255); fill-opacity:1.0; stroke-linejoin: miter">
<path d="M699.95984,705.3947L667.8841,730.46375L661.1385,729.07153L659.18915,740.0667Q641.7242,775.1658,637.2675,788.0477Q627.89935,812.4519,624.2779,844.4532Q621.62115,865.39905,619.178,910.4967Q619.4299,911.0798,621.9633,914.01196Q627.5708,920.6116,637.82196,920.8481Q647.08966,921.47046,675.4532,915.9304Q661.77057,881.6223,658.0497,861.34503Q653.42377,838.2828,655.91003,816.5395Q658.30707,795.20215,668.56274,772.7272Q677.64166,751.83014,703.6969,709.80646L703.75336,709.5956L699.96405,705.3994"/>
</g>
<g style="fill:rgb(255,0,0); fill-opacity:1.0; stroke-linejoin: miter">
<path d="M665.73956,733.99884L658.7033,740.73627L656.4713,748.71643Q651.32635,755.1113,647.3857,763.75836Q639.87213,780.34656,632.3984,805.8904Q625.95465,828.24414,623.11414,847.44214Q620.0084,867.31323,618.0877,898.9421L623.2327,909.9865L635.86646,897.0081L661.9842,751.6338L669.983,743.9872L665.76495,734.05835"/>
</g>
<g style="fill:rgb(255,200,177); fill-opacity:1.0; stroke-linejoin: miter">
<path d="M670.0716,636.6957Q667.8683,636.6858,664.83997,637.1343Q654.89825,639.1547,647.35284,640.09924Q644.0008,640.7125,642.432,641.82306Q637.5562,645.0604,637.21094,658.44336Q637.0395,664.79895,638.6018,672.2207Q638.80963,682.9855,639.37384,687.6599Q640.0009,693.4682,641.5376,696.8916Q642.2337,698.48376,643.1023,699.8896L647.4959,706.33673Q653.2521,716.97955,653.62915,716.828Q655.7441,719.6593,660.2088,719.0165L661.6832,729.7593L668.3444,730.969L699.96814,708.56287L699.45074,683.3447Q704.23676,679.515,705.13556,665.99695Q705.3128,655.8008,697.6403,659.21564Q695.41144,660.53656,694.283,663.04486Q692.789,666.0507,692.3239,674.0307L690.64154,674.43036Q687.25116,651.28156,683.1177,644.31464Q679.35065,636.62933,670.0763,636.6957"/>
</g>
<g style="fill:rgb(255,200,177); fill-opacity:1.0; stroke-linejoin: miter">
<path d="M707.39795,941.6621L691.647,925.93805L681.31903,935.3172Q677.1624,935.2792,674.3624,937.10956Q671.60095,938.72015,665.17993,945.27954Q671.70953,956.3309,678.23584,958.7298Q684.1902,961.5029,701.1117,959.8848Q702.3625,957.5942,702.36536,956.2815Q702.4811,954.8664,701.0376,952.04706L701.4991,950.5243Q702.2181,947.57336,707.36084,941.7053"/>
</g>
<g style="fill:rgb(255,255,255); fill-opacity:1.0; stroke-linejoin: miter">
<path d="M717.38513,939.28046L696.4551,921.77277L689.6379,926.5626L709.33234,946.16254L717.3708,939.29266"/>
</g>
<g style="fill:rgb(255,77,0); fill-opacity:0.11372549; stroke-linejoin: miter">
<path d="M683.531,704.00665Q676.40436,712.7962,672.38116,715.1993Q668.3947,717.92596,660.12494,718.9619L661.51025,729.59686L668.1612,731.06165L687.00305,717.2411L683.5319,704.00995"/>
</g>
<g>
<g style="fill:rgb(0,0,0); fill-opacity:1.0; stroke-linejoin: miter">
<path d="M487.9879,647.14246Q485.24567,647.14246,482.94565,647.9385Q480.6457,648.64624,478.8765,649.88464Q477.10724,651.03467,475.69186,652.5386Q474.36496,654.04236,473.48038,655.54614Q473.48038,654.04236,473.215,651.7423Q472.9496,649.53076,472.6842,648.20386Q471.71118,648.027,470.82654,647.9385Q470.0304,647.8501,469.0573,647.8501Q468.08426,647.8501,467.1112,647.9385Q466.22656,648.027,465.2535,648.20386L465.2535,693.58435Q466.22656,693.7612,467.46506,693.84973Q468.7035,693.9381,469.6766,693.9381Q470.64963,693.9381,471.8881,693.84973Q473.03806,693.7612,474.0111,693.58435L474.01114,670.5846Q474.0111,666.4269,475.07266,663.4192Q476.0457,660.5,477.7265,658.64233Q479.40723,656.78455,481.61874,655.9Q483.8303,655.0154,486.30716,655.0154Q490.55328,655.0154,492.49942,658.0231Q494.4456,660.94226,494.4456,667.223L494.44556,693.58435Q495.4186,693.7612,496.65704,693.84973Q497.80704,693.9381,498.78012,693.9381Q499.75317,693.9381,500.9916,693.84973Q502.2301,693.7612,503.20316,693.58435L503.2032,664.8345Q503.2032,656.0769,499.48785,651.5653Q495.7725,647.14246,487.9879,647.14246 Z"/>
</g>
<g style="fill:rgb(0,0,0); fill-opacity:1.0; stroke-linejoin: miter">
<path d="M262.32452,628.3888Q261.35144,628.3888,260.11298,628.4772Q258.963,628.5657,257.98993,628.74255L257.99,681.8191Q257.99,685.35754,258.963,687.74585Q259.9361,690.1344,261.61682,691.5497Q263.29758,692.9651,265.5091,693.58435Q267.7206,694.2035,270.28595,694.2035Q271.7898,694.2035,273.55905,694.0266Q275.32828,693.93823,276.56674,693.49585Q276.56674,689.869,275.77054,686.77295Q275.0629,686.9497,274.00137,687.0383Q273.0283,687.1267,272.23212,687.1266Q271.08212,687.1266,270.02057,686.8613Q269.04755,686.6843,268.25143,685.8882Q267.54373,685.18054,267.1014,683.76526Q266.65915,682.34985,266.65915,679.8729L266.6591,628.74255Q265.68604,628.5657,264.44757,628.4772Q263.29758,628.3888,262.32452,628.3888 Z"/>
</g>
<g style="fill:rgb(0,0,0); fill-opacity:1.0; stroke-linejoin: miter">
<path d="M348.92767,647.1426Q340.61234,647.1426,336.27777,650.6809Q332.03162,654.21936,332.03162,660.23474Q332.03162,664.7462,334.59705,667.4Q337.16238,670.05383,342.82385,672.1769L345.91998,673.3269Q347.6007,673.85767,349.10458,674.4769Q350.51996,675.00757,351.66992,675.80383Q352.73148,676.59985,353.43915,677.75Q354.05835,678.8999,354.05835,680.6692Q354.05835,682.26135,353.17374,683.5884Q352.3776,684.8268,350.96228,685.7114Q349.6353,686.59595,347.7776,687.0382Q345.91995,687.48047,343.88535,687.48047Q341.0546,687.48047,338.1354,686.8613Q335.30466,686.33057,332.91626,685.35767Q332.2086,687.1267,331.58932,688.9845Q331.05856,690.75366,330.88165,692.5228Q333.62396,693.496,336.80853,694.115Q339.99304,694.64575,344.2392,694.64575Q348.39682,694.64575,351.84683,693.58435Q355.2968,692.5228,357.7737,690.57666Q360.16214,688.719,361.48914,685.9768Q362.81604,683.323,362.81604,680.0499Q362.81604,677.13074,361.93143,675.0077Q361.13528,672.973,359.7199,671.46924Q358.39294,670.05383,356.44684,669.0808Q354.58914,668.10767,352.46606,667.4L348.5738,666.0731Q346.9815,665.5425,345.56616,665.0116Q344.23923,664.48083,343.17767,663.6847Q342.11615,662.9769,341.49695,661.9154Q340.87772,660.854,340.87772,659.3501Q340.87772,656.4309,343.44308,655.2809Q345.91998,654.131,349.19302,654.131Q352.28918,654.131,355.03143,654.8386Q357.6853,655.4579,359.63144,656.1655Q360.33914,654.66174,360.8699,652.89246Q361.3122,651.1233,361.48914,649.3541Q359.0122,648.4695,355.6507,647.7617Q352.3776,647.1426,348.92767,647.1426 Z"/>
</g>
<g style="fill:rgb(0,0,0); fill-opacity:1.0; stroke-linejoin: miter">
<path d="M389.1773,647.14246Q380.86197,647.14246,376.5274,650.6809Q372.2813,654.21936,372.2813,660.23474Q372.2813,664.7462,374.8467,667.4Q377.41205,670.05383,383.07352,672.1769L386.16965,673.3269Q387.8504,673.85767,389.35428,674.4769Q390.76965,675.0077,391.91962,675.80383Q392.98117,676.6,393.68884,677.75Q394.30804,678.8999,394.30804,680.6692Q394.30804,682.2615,393.4235,683.5884Q392.62732,684.8268,391.21194,685.7114Q389.88498,686.59595,388.0273,687.0382Q386.16962,687.4806,384.13504,687.4806Q381.3043,687.4806,378.3851,686.8613Q375.55435,686.33057,373.16592,685.35754Q372.45825,687.1267,371.839,688.9844Q371.30826,690.75366,371.1313,692.5228Q373.87363,693.49585,377.0582,694.1151Q380.24277,694.6459,384.48886,694.6459Q388.6465,694.6459,392.09653,693.58435Q395.54645,692.5228,398.02335,690.5768Q400.41183,688.719,401.7388,685.9768Q403.06567,683.323,403.06567,680.0499Q403.06567,677.13074,402.1811,675.0077Q401.38495,672.97314,399.96954,671.46924Q398.64264,670.05396,396.6965,669.0808Q394.83875,668.1078,392.71576,667.3999L388.82343,666.0731Q387.2312,665.54236,385.8158,665.0115Q384.48886,664.4807,383.4274,663.6847Q382.36584,662.9769,381.74658,661.9154Q381.12738,660.8539,381.12738,659.3501Q381.12738,656.4309,383.69275,655.2809Q386.16962,654.131,389.4427,654.131Q392.53882,654.131,395.2811,654.8386Q397.9349,655.4579,399.88104,656.1655Q400.58878,654.6616,401.1195,652.89246Q401.56186,651.12317,401.73877,649.354Q399.2618,648.46936,395.9003,647.7617Q392.62726,647.14246,389.1773,647.14246 Z"/>
</g>
<g style="fill:rgb(0,0,0); fill-opacity:1.0; stroke-linejoin: miter">
<path d="M303.19345,647.1426Q297.7089,647.1426,293.63968,649.08875Q289.65897,650.9464,287.00516,654.21936Q284.35132,657.40405,283.0244,661.827Q281.78595,666.1616,281.78595,671.20386Q281.78595,676.3346,283.11285,680.6692Q284.43976,684.9153,287.35892,688.09985Q290.1897,691.1959,294.61273,692.9652Q299.0358,694.6459,305.22803,694.6459Q309.47415,694.6459,313.01257,694.0266Q316.46252,693.4075,319.38174,692.16895Q319.29327,690.3113,318.85098,688.3651Q318.4087,686.50757,317.70102,685.18066Q312.0395,687.3921,305.75882,687.3921Q298.59348,687.3921,294.87817,683.94226Q291.25125,680.4923,291.0743,673.0615L321.94714,673.06226Q322.03564,672.0885,322.12405,670.6732Q322.21252,669.3462,322.21252,668.1078Q322.21252,663.5962,320.97406,659.704Q319.7356,655.90015,317.34717,653.06934Q314.9587,650.32715,311.42032,648.73486Q307.88187,647.1426,303.19345,647.1426 Z M302.92807,654.131Q305.67035,654.131,307.70493,655.1925Q309.6511,656.1655,310.978,657.8463Q312.21643,659.527,312.92413,661.827Q313.54337,664.0386,313.54337,666.5155L291.16278,666.516Q291.78198,660.677,294.70123,657.40405Q297.53195,654.131,302.92807,654.131 Z"/>
</g>
<g style="fill:rgb(0,0,0); fill-opacity:1.0; stroke-linejoin: miter">
<path d="M432.61157,647.1426Q427.30392,647.14246,423.32315,649.0001Q419.3424,650.8578,416.6886,654.0425Q414.03476,657.22705,412.7079,661.56165Q411.46942,665.89624,411.46945,670.9385Q411.46945,675.9807,412.79636,680.3153Q414.0348,684.6499,416.68857,687.8345Q419.3424,691.01904,423.3231,692.8766Q427.30386,694.6459,432.6115,694.6459Q437.9191,694.6459,441.89987,692.7882Q445.88058,691.01904,448.53442,687.8345Q451.18832,684.6499,452.51523,680.3153Q453.7537,675.9807,453.7537,670.9385Q453.7537,665.89624,452.4268,661.56165Q451.18832,657.22705,448.5345,654.0425Q445.88065,650.8578,441.89993,649.0001Q437.91916,647.1426,432.61157,647.1426 Z M432.61157,654.30786Q438.71533,654.30786,441.63455,658.73096Q444.55374,663.0654,444.55374,670.9385Q444.55374,678.8115,441.63455,683.2345Q438.71527,687.6575,432.6115,687.6575Q426.50766,687.6575,423.58853,683.2345Q420.75778,678.8115,420.75778,670.93835Q420.75778,663.0654,423.67703,658.64233Q426.50772,654.30786,432.61157,654.30786 Z"/>
</g>
</g>
<g style="fill:rgb(0,0,0); fill-opacity:1.0; stroke-linejoin: miter">
<path d="M385.24075,724.54553L361.7102,735.78015Q362.4179,737.8148,363.1256,739.3187Q363.83325,740.8225,365.07172,742.3263L377.89853,736.4879L377.89853,774.5259L364.6295,774.5266Q364.2756,776.29517,364.2756,778.24133Q364.2756,780.2759,364.6295,782.04517L399.2176,782.0458Q399.48297,780.099,399.48297,778.24133Q399.48297,776.56055,399.2176,774.526L386.5677,774.5265L386.56766,724.54553 Z"/>
</g>
</g>
</svg>